<svg xmlns="http://www.w3.org/2000/svg" viewBox="0 0 800 640">
<defs>
<radialGradient id="glow" cx="0.5" cy="0.5" r=".75"><stop offset="0" stop-color="#7b5cff" stop-opacity=".35"/><stop offset=".55" stop-color="#7b5cff" stop-opacity=".06"/><stop offset="1" stop-color="#7b5cff" stop-opacity="0"/></radialGradient>
<filter id="grain"><feTurbulence type="fractalNoise" baseFrequency=".9" numOctaves="2" seed="2" stitchTiles="stitch"/><feColorMatrix values="0 0 0 0 1 0 0 0 0 1 0 0 0 0 1 0 0 0 .05 0"/></filter>
<filter id="blur" x="-50%" y="-50%" width="200%" height="200%"><feGaussianBlur stdDeviation="18"/></filter>
</defs>
<rect width="800" height="640" fill="#0c0c11"/>
<rect width="800" height="640" fill="url(#glow)"/>
<rect x="325.0" y="170.0" width="150" height="300" rx="34" stroke="#fff" fill="none" stroke-opacity="0.60"/>
<rect x="299.0" y="144.0" width="202" height="352" rx="44" stroke="#fff" fill="none" stroke-opacity="0.54"/>
<rect x="273.0" y="118.0" width="254" height="404" rx="54" stroke="#fff" fill="none" stroke-opacity="0.48"/>
<rect x="247.0" y="92.0" width="306" height="456" rx="64" stroke="#fff" fill="none" stroke-opacity="0.42"/>
<rect x="221.0" y="66.0" width="358" height="508" rx="74" stroke="#fff" fill="none" stroke-opacity="0.36"/>
<rect x="195.0" y="40.0" width="410" height="560" rx="84" stroke="#fff" fill="none" stroke-opacity="0.30"/>
<rect x="169.0" y="14.0" width="462" height="612" rx="94" stroke="#fff" fill="none" stroke-opacity="0.24"/>
<rect x="143.0" y="-12.0" width="514" height="664" rx="104" stroke="#fff" fill="none" stroke-opacity="0.18"/>
<rect x="117.0" y="-38.0" width="566" height="716" rx="114" stroke="#fff" fill="none" stroke-opacity="0.12"/>
<rect x="375" y="186" width="50" height="6" rx="3" fill="#fff" fill-opacity=".4"/>
<circle cx="400" cy="320" r="42" stroke="#fff" fill="none" stroke-opacity=".25"/><path d="M400 278 A42 42 0 0 1 441 330" stroke="#c8ff3d" stroke-width="3" fill="none" stroke-linecap="round"/>
<rect width="800" height="640" filter="url(#grain)"/>
</svg>
