<svg xmlns="http://www.w3.org/2000/svg" viewBox="0 0 800 640">
<defs>
<radialGradient id="glow" cx="0.5" cy="0.25" r=".75"><stop offset="0" stop-color="#7b5cff" stop-opacity=".35"/><stop offset=".55" stop-color="#7b5cff" stop-opacity=".06"/><stop offset="1" stop-color="#7b5cff" stop-opacity="0"/></radialGradient>
<filter id="grain"><feTurbulence type="fractalNoise" baseFrequency=".9" numOctaves="2" seed="1" stitchTiles="stitch"/><feColorMatrix values="0 0 0 0 1 0 0 0 0 1 0 0 0 0 1 0 0 0 .05 0"/></filter>
<filter id="blur" x="-50%" y="-50%" width="200%" height="200%"><feGaussianBlur stdDeviation="18"/></filter>
</defs>
<rect width="800" height="640" fill="#0c0c11"/>
<rect width="800" height="640" fill="url(#glow)"/>
<line x1="328" y1="300" x2="-440" y2="640" stroke="#fff" fill="none" stroke-opacity="0.040"/>
<line x1="334" y1="300" x2="-370" y2="640" stroke="#fff" fill="none" stroke-opacity="0.050"/>
<line x1="340" y1="300" x2="-300" y2="640" stroke="#fff" fill="none" stroke-opacity="0.060"/>
<line x1="346" y1="300" x2="-230" y2="640" stroke="#fff" fill="none" stroke-opacity="0.070"/>
<line x1="352" y1="300" x2="-160" y2="640" stroke="#fff" fill="none" stroke-opacity="0.080"/>
<line x1="358" y1="300" x2="-90" y2="640" stroke="#fff" fill="none" stroke-opacity="0.090"/>
<line x1="364" y1="300" x2="-20" y2="640" stroke="#fff" fill="none" stroke-opacity="0.100"/>
<line x1="370" y1="300" x2="50" y2="640" stroke="#fff" fill="none" stroke-opacity="0.110"/>
<line x1="376" y1="300" x2="120" y2="640" stroke="#fff" fill="none" stroke-opacity="0.120"/>
<line x1="382" y1="300" x2="190" y2="640" stroke="#fff" fill="none" stroke-opacity="0.130"/>
<line x1="388" y1="300" x2="260" y2="640" stroke="#fff" fill="none" stroke-opacity="0.140"/>
<line x1="394" y1="300" x2="330" y2="640" stroke="#fff" fill="none" stroke-opacity="0.150"/>
<line x1="400" y1="300" x2="400" y2="640" stroke="#fff" fill="none" stroke-opacity="0.160"/>
<line x1="406" y1="300" x2="470" y2="640" stroke="#fff" fill="none" stroke-opacity="0.150"/>
<line x1="412" y1="300" x2="540" y2="640" stroke="#fff" fill="none" stroke-opacity="0.140"/>
<line x1="418" y1="300" x2="610" y2="640" stroke="#fff" fill="none" stroke-opacity="0.130"/>
<line x1="424" y1="300" x2="680" y2="640" stroke="#fff" fill="none" stroke-opacity="0.120"/>
<line x1="430" y1="300" x2="750" y2="640" stroke="#fff" fill="none" stroke-opacity="0.110"/>
<line x1="436" y1="300" x2="820" y2="640" stroke="#fff" fill="none" stroke-opacity="0.100"/>
<line x1="442" y1="300" x2="890" y2="640" stroke="#fff" fill="none" stroke-opacity="0.090"/>
<line x1="448" y1="300" x2="960" y2="640" stroke="#fff" fill="none" stroke-opacity="0.080"/>
<line x1="454" y1="300" x2="1030" y2="640" stroke="#fff" fill="none" stroke-opacity="0.070"/>
<line x1="460" y1="300" x2="1100" y2="640" stroke="#fff" fill="none" stroke-opacity="0.060"/>
<line x1="466" y1="300" x2="1170" y2="640" stroke="#fff" fill="none" stroke-opacity="0.050"/>
<line x1="472" y1="300" x2="1240" y2="640" stroke="#fff" fill="none" stroke-opacity="0.040"/>
<line x1="0" y1="302.8" x2="800" y2="302.8" stroke="#fff" fill="none" stroke-opacity="0.041"/>
<line x1="0" y1="311.2" x2="800" y2="311.2" stroke="#fff" fill="none" stroke-opacity="0.052"/>
<line x1="0" y1="325.3" x2="800" y2="325.3" stroke="#fff" fill="none" stroke-opacity="0.063"/>
<line x1="0" y1="345.0" x2="800" y2="345.0" stroke="#fff" fill="none" stroke-opacity="0.074"/>
<line x1="0" y1="370.2" x2="800" y2="370.2" stroke="#fff" fill="none" stroke-opacity="0.085"/>
<line x1="0" y1="401.2" x2="800" y2="401.2" stroke="#fff" fill="none" stroke-opacity="0.095"/>
<line x1="0" y1="437.7" x2="800" y2="437.7" stroke="#fff" fill="none" stroke-opacity="0.106"/>
<line x1="0" y1="479.8" x2="800" y2="479.8" stroke="#fff" fill="none" stroke-opacity="0.117"/>
<line x1="0" y1="527.6" x2="800" y2="527.6" stroke="#fff" fill="none" stroke-opacity="0.128"/>
<line x1="0" y1="581.0" x2="800" y2="581.0" stroke="#fff" fill="none" stroke-opacity="0.139"/>
<line x1="0" y1="640.0" x2="800" y2="640.0" stroke="#fff" fill="none" stroke-opacity="0.150"/>
<ellipse cx="400" cy="330" rx="170" ry="10" fill="#7b5cff" opacity=".45" filter="url(#blur)"/>
<rect x="250" y="110" width="300" height="190" rx="10" fill="#0c0c11" fill-opacity=".6" stroke="#fff" stroke-opacity=".55"/>
<rect x="270" y="132" width="120" height="8" rx="4" fill="#fff" fill-opacity=".5"/><rect x="270" y="150" width="80" height="8" rx="4" fill="#fff" fill-opacity=".2"/>
<line x1="250" y1="200" x2="550" y2="200" stroke="#fff" fill="none" stroke-opacity=".12"/><line x1="400" y1="200" x2="400" y2="300" stroke="#fff" fill="none" stroke-opacity=".12"/>
<rect x="270" y="264" width="54" height="16" rx="8" fill="#c8ff3d"/>
<rect width="800" height="640" filter="url(#grain)"/>
</svg>
