<svg xmlns="http://www.w3.org/2000/svg" viewBox="0 0 800 640">
<defs>
<radialGradient id="glow" cx="0.5" cy="0.3" r=".75"><stop offset="0" stop-color="#7b5cff" stop-opacity=".35"/><stop offset=".55" stop-color="#7b5cff" stop-opacity=".06"/><stop offset="1" stop-color="#7b5cff" stop-opacity="0"/></radialGradient>
<linearGradient id="img" x1="0" y1="0" x2="1" y2="1"><stop offset="0" stop-color="#7b5cff" stop-opacity=".35"/><stop offset="1" stop-color="#ff5ca8" stop-opacity=".15"/></linearGradient>
<filter id="grain"><feTurbulence type="fractalNoise" baseFrequency=".9" numOctaves="2" seed="11" stitchTiles="stitch"/><feColorMatrix values="0 0 0 0 1 0 0 0 0 1 0 0 0 0 1 0 0 0 .05 0"/></filter>
<filter id="blur" x="-50%" y="-50%" width="200%" height="200%"><feGaussianBlur stdDeviation="18"/></filter>
</defs>
<rect width="800" height="640" fill="#0c0c11"/>
<rect width="800" height="640" fill="url(#glow)"/>
<ellipse cx="400" cy="560" rx="260" ry="14" fill="#7b5cff" opacity=".4" filter="url(#blur)"/>
<rect x="130" y="90" width="540" height="420" rx="14" fill="#101017" stroke="#fff" stroke-opacity=".35"/>
<line x1="130" y1="130" x2="670" y2="130" stroke="#fff" fill="none" stroke-opacity=".15"/>
<circle cx="152" cy="110" r="4.5" stroke="#fff" fill="none" stroke-opacity=".45"/>
<circle cx="168" cy="110" r="4.5" stroke="#fff" fill="none" stroke-opacity=".45"/>
<circle cx="184" cy="110" r="4.5" stroke="#fff" fill="none" stroke-opacity=".45"/>
<rect x="310" y="101" width="180" height="18" rx="9" stroke="#fff" fill="none" stroke-opacity=".2"/><rect x="326" y="107" width="90" height="6" rx="3.0" fill="#fff" fill-opacity="0.25"/>
<rect x="160" y="154" width="60" height="10" rx="5.0" fill="#fff" fill-opacity="0.6"/>
<rect x="430" y="156" width="36" height="6" rx="3.0" fill="#fff" fill-opacity="0.25"/>
<rect x="482" y="156" width="36" height="6" rx="3.0" fill="#fff" fill-opacity="0.25"/>
<rect x="534" y="156" width="36" height="6" rx="3.0" fill="#fff" fill-opacity="0.25"/>
<rect x="586" y="156" width="36" height="6" rx="3.0" fill="#fff" fill-opacity="0.25"/>
<rect x="640" y="148" width="0" height="0"/>
<rect x="160" y="202" width="230" height="18" rx="9.0" fill="#fff" fill-opacity="0.75"/>
<rect x="160" y="230" width="180" height="18" rx="9.0" fill="#fff" fill-opacity="0.75"/>
<rect x="160" y="266" width="210" height="7" rx="3.5" fill="#fff" fill-opacity="0.22"/>
<rect x="160" y="280" width="170" height="7" rx="3.5" fill="#fff" fill-opacity="0.22"/>
<rect x="160" y="306" width="96" height="30" rx="15" fill="#c8ff3d"/>
<rect x="266" y="306" width="96" height="30" rx="15" stroke="#fff" fill="none" stroke-opacity=".35"/>
<rect x="420" y="190" width="220" height="150" rx="10" fill="url(#img)" stroke="#fff" stroke-opacity=".2"/>
<path d="M440 320 l50 -50 35 35 30 -25 65 60" stroke="#fff" fill="none" stroke-opacity=".45" stroke-linejoin="round"/><circle cx="590" cy="230" r="14" stroke="#fff" fill="none" stroke-opacity=".45"/>
<rect x="160" y="380" width="150" height="100" rx="10" stroke="#fff" fill="none" stroke-opacity=".18"/>
<circle cx="182" cy="404" r="9" stroke="#fff" fill="none" stroke-opacity=".35"/><rect x="176" y="430" width="90" height="7" rx="3.5" fill="#fff" fill-opacity="0.4"/><rect x="176" y="446" width="110" height="6" rx="3.0" fill="#fff" fill-opacity="0.18"/><rect x="176" y="458" width="80" height="6" rx="3.0" fill="#fff" fill-opacity="0.18"/>
<rect x="324" y="380" width="150" height="100" rx="10" stroke="#fff" fill="none" stroke-opacity=".18"/>
<circle cx="346" cy="404" r="9" stroke="#fff" fill="none" stroke-opacity=".35"/><rect x="340" y="430" width="90" height="7" rx="3.5" fill="#fff" fill-opacity="0.4"/><rect x="340" y="446" width="110" height="6" rx="3.0" fill="#fff" fill-opacity="0.18"/><rect x="340" y="458" width="80" height="6" rx="3.0" fill="#fff" fill-opacity="0.18"/>
<rect x="488" y="380" width="150" height="100" rx="10" stroke="#fff" fill="none" stroke-opacity=".18"/>
<circle cx="510" cy="404" r="9" stroke="#fff" fill="none" stroke-opacity=".35"/><rect x="504" y="430" width="90" height="7" rx="3.5" fill="#fff" fill-opacity="0.4"/><rect x="504" y="446" width="110" height="6" rx="3.0" fill="#fff" fill-opacity="0.18"/><rect x="504" y="458" width="80" height="6" rx="3.0" fill="#fff" fill-opacity="0.18"/>
<rect x="414" y="184" width="232" height="162" fill="none" stroke="#c8ff3d" stroke-width="1.5"/>
<rect x="409" y="179" width="10" height="10" fill="#0c0c11" stroke="#c8ff3d" stroke-width="1.5"/>
<rect x="641" y="179" width="10" height="10" fill="#0c0c11" stroke="#c8ff3d" stroke-width="1.5"/>
<rect x="409" y="341" width="10" height="10" fill="#0c0c11" stroke="#c8ff3d" stroke-width="1.5"/>
<rect x="641" y="341" width="10" height="10" fill="#0c0c11" stroke="#c8ff3d" stroke-width="1.5"/>
<rect x="582" y="354" width="64" height="20" rx="4" fill="#c8ff3d"/><text x="614" y="368" text-anchor="middle" font-family="SFMono-Regular, Menlo, Consolas, monospace" font-size="11" fill="#0c0c11">220×150</text>
<path d="M630 310 l0 34 9 -9 7 15 7 -3 -7 -15 13 0z" fill="#fff" stroke="#0c0c11" stroke-width="2" stroke-linejoin="round"/>
<g transform="translate(560 40)"><rect width="110" height="36" rx="18" fill="#101017" stroke="#fff" stroke-opacity=".25"/><text x="55" y="23" text-anchor="middle" font-family="SFMono-Regular, Menlo, Consolas, monospace" font-size="14" fill="#fff" fill-opacity=".8">&lt;/&gt; code</text></g>
<g transform="translate(70 470)"><rect width="120" height="36" rx="18" fill="#101017" stroke="#fff" stroke-opacity=".25"/><circle cx="20" cy="18" r="5" fill="#c8ff3d"/><text x="68" y="23" text-anchor="middle" font-family="Helvetica, Arial, sans-serif" font-size="13" fill="#fff" fill-opacity=".8">Responsive</text></g>
<rect width="800" height="640" filter="url(#grain)"/>
</svg>
